# xmcd
#
# Track frame offsets: 
#        150
#        22120
#        43485
#        66516
#        96318
#        117541
#        128863
#        140329
#
# Disc length: 2010 seconds
#
# Revision: 0
# Processed by: cddbd v1.5.2PL0 Copyright (c) Steve Scherf et al.
# Submitted via: ExactAudioCopy v0.99pb4
#
DISCID=8007d808
DTITLE=Burton Zimmer - 310-659-0535
DYEAR=1900
DGENRE=Blues
TTITLE0=It's All Over
TTITLE1=Dust My Broom
TTITLE2=Back To Reality
TTITLE3=Burt's Boogie
TTITLE4=I Saw You
TTITLE5=Slide Guitar Medley
TTITLE6=Dust My Broom (alt)
TTITLE7=Burt's Boogie (alt)
EXTD=
EXTT0=
EXTT1=
EXTT2=
EXTT3=
EXTT4=
EXTT5=
EXTT6=
EXTT7=
PLAYORDER=
